<?xml version="1.0" encoding="utf-8"?>
<!-- Generator: Adobe Illustrator 19.2.0, SVG Export Plug-In . SVG Version: 6.00 Build 0)  -->
<svg version="1.1" id="Layer_1" xmlns="http://www.w3.org/2000/svg" xmlns:xlink="http://www.w3.org/1999/xlink" x="0px" y="0px"
	 viewBox="0 0 100 100" style="enable-background:new 0 0 100 100;" xml:space="preserve">
<style type="text/css">
	.st0{fill:#4D4559;}
	.st1{fill:#564E61;}
	.st2{opacity:0.2;fill:#1C1C1C;enable-background:new    ;}
	.st3{fill:#FFD535;}
	.st4{fill:#FFC23C;}
	.st5{fill:#FF6845;}
	
		.st6{opacity:0.3;fill:none;stroke:#FFFFFF;stroke-width:0.5;stroke-linecap:round;stroke-miterlimit:10;stroke-dasharray:3,4,8,3;enable-background:new    ;}
	
		.st7{opacity:0.3;fill:none;stroke:#FFFFFF;stroke-width:0.5;stroke-linecap:round;stroke-miterlimit:10;stroke-dasharray:2,3,6,1;enable-background:new    ;}
</style>
<title>beer</title>
<g>
	<g id="skills-icons">
		<path class="st0" d="M56.4,37.6l-2.8-19.1c0.6-0.2,1.1-0.9,1.1-1.5v-0.4c0-0.4-0.2-0.8-0.5-1.1c0.3-0.3,0.5-0.7,0.5-1.1v-0.4
			c0-0.9-0.7-1.6-1.6-1.6c0,0,0,0,0,0h-6c-0.9,0-1.6,0.7-1.6,1.6v0v0.4c0,0.4,0.2,0.8,0.5,1.1c-0.3,0.3-0.5,0.7-0.5,1.2V17
			c0,0.7,0.4,1.3,1.1,1.5l-2.8,19.1c-0.2,0.7-4.1,5-4.1,6.1v0.4c0,0.6,0.2,1.2,0.5,1.8l1.1,37.7c-0.5,0.4-0.8,1-0.8,1.7v0.2
			c0,1.2,1,2.2,2.1,2.2c0,0,0,0,0,0h15.2c1.2,0,2.2-1,2.2-2.2l0,0v-0.1c0-0.7-0.3-1.3-0.8-1.7L60,46c0.3-0.6,0.5-1.2,0.5-1.8v-0.4
			C60.5,42.6,56.5,38.4,56.4,37.6z"/>
		<path class="st1" d="M58.9,83.8l1-35.8H49.8v36h9.3C59.1,83.9,59,83.8,58.9,83.8z"/>
		<polygon class="st2" points="40,47.6 40.4,61.1 59.6,61.1 60,47.6 		"/>
		<path class="st1" d="M56.4,37.6l-2.8-18.8h-3.8v24.6h10.6C59.8,41.9,56.5,38.3,56.4,37.6z"/>
		<path class="st2" d="M57.1,38.8c-0.3-0.3-0.6-0.7-0.8-1.2l-2.5-17h-7.8l-2.5,17c-0.2,0.4-0.4,0.8-0.8,1.2
			C44.8,38.8,55.2,38.8,57.1,38.8z"/>
		<polygon class="st3" points="60.5,59.9 60.8,46.5 39.2,46.5 39.5,59.9 		"/>
		<polygon class="st4" points="60.5,59.9 60.8,46.5 52.8,46.5 52.6,59.9 		"/>
		<path class="st3" d="M57.1,37.6l-2.9-18.1h-8.4l-2.9,18.1C42.8,37.7,57.2,37.7,57.1,37.6z"/>
		<path class="st4" d="M57.1,37.6l-2.9-18.1h-2.7l0.6,18.1C52.1,37.7,57.2,37.7,57.1,37.6z"/>
		<polygon class="st5" points="60.7,56 39.3,56 39.2,50.5 60.8,50.5 		"/>
		<line class="st6" x1="43.2" y1="43.4" x2="57.5" y2="43.4"/>
		<line class="st7" x1="45.6" y1="84" x2="55.1" y2="84"/>
		<line class="st7" x1="47.5" y1="16.1" x2="52.5" y2="16.1"/>
	</g>
</g>
</svg>
