<svg xmlns="http://www.w3.org/2000/svg" viewBox="0 0 100 100"><defs><style>.cls-1{isolation:isolate;}.cls-2,.cls-3{fill:#4d4559;}.cls-2{opacity:0.25;}.cls-4{fill:#564e61;}.cls-5{fill:#1c1c1c;opacity:0.2;mix-blend-mode:multiply;}.cls-6{fill:#ffd535;}.cls-7{fill:#ffc23c;}.cls-8{fill:#ff6845;}.cls-10,.cls-9{fill:none;stroke:#fff;stroke-linecap:round;stroke-miterlimit:10;stroke-width:0.5px;opacity:0.3;}.cls-9{stroke-dasharray:3 4 8 3;}.cls-10{stroke-dasharray:2 3 6 1;}</style></defs><title>beer</title><g class="cls-1"><g id="skills-icons"><rect class="cls-2" x="38.67" y="86.2" width="22.33" height="3.07" rx="1.54" ry="1.54"/><path class="cls-3" d="M56.4,37.64l-2.8-19.09A1.62,1.62,0,0,0,54.66,17V16.61a1.62,1.62,0,0,0-.48-1.15,1.62,1.62,0,0,0,.48-1.15V13.89A1.63,1.63,0,0,0,53,12.27H47a1.63,1.63,0,0,0-1.63,1.63v0.42a1.62,1.62,0,0,0,.48,1.15,1.62,1.62,0,0,0-.48,1.15V17a1.62,1.62,0,0,0,1.06,1.52L43.6,37.64c-0.15.72-4.08,5-4.08,6.13v0.44A3.68,3.68,0,0,0,40,46l1.07,37.72a2.13,2.13,0,0,0-.82,1.68v0.16a2.15,2.15,0,0,0,2.15,2.15H57.61a2.15,2.15,0,0,0,2.15-2.15V85.43a2.13,2.13,0,0,0-.82-1.68L60,46a3.68,3.68,0,0,0,.47-1.82V43.77C60.47,42.62,56.55,38.37,56.4,37.64Z"/><path class="cls-4" d="M58.93,83.75l1-35.75H49.83V84h9.35A2.22,2.22,0,0,0,58.93,83.75Z"/><polygon class="cls-5" points="40.04 47.62 40.43 61.1 59.57 61.1 59.96 47.62 40.04 47.62"/><path class="cls-4" d="M56.4,37.64L53.63,18.83h-3.8V43.42H60.39C59.84,41.93,56.54,38.31,56.4,37.64Z"/><path class="cls-5" d="M57.14,38.8a4.94,4.94,0,0,1-.75-1.16l-2.5-17H46.1l-2.5,17a4.94,4.94,0,0,1-.75,1.16C44.84,38.85,55.16,38.85,57.14,38.8Z"/><polygon class="cls-6" points="59.87 59.94 60.2 46.45 39.8 46.45 40.13 59.94 59.87 59.94"/><polygon class="cls-7" points="59.87 59.94 60.2 46.45 52.67 46.45 52.5 59.94 59.87 59.94"/><path class="cls-6" d="M56.8,37.64L54,19.51H46L43.2,37.64C43.18,37.72,56.82,37.72,56.8,37.64Z"/><path class="cls-7" d="M56.8,37.64L54,19.51H51.42L52,37.64C52,37.72,56.82,37.72,56.8,37.64Z"/><polygon class="cls-8" points="60.05 55.95 39.95 55.95 39.8 50.45 60.2 50.45 60.05 55.95"/><line class="cls-9" x1="43.2" y1="43.42" x2="57.5" y2="43.42"/><line class="cls-10" x1="45.59" y1="84" x2="55.11" y2="84"/><line class="cls-10" x1="47.5" y1="16.07" x2="52.5" y2="16.07"/></g></g></svg>