<svg id="Layer_1" data-name="Layer 1" xmlns="http://www.w3.org/2000/svg" viewBox="0 0 480 480"><defs><style>.cls-1{fill:#1a1a1a;}.cls-2{fill:#BFFFDF;}.cls-3{fill:#FFFA5A;}</style></defs><title>images</title><path class="cls-1" d="M285.94,183.38H194.06a9.81,9.81,0,0,0-9.81,9.81v91.89a9.81,9.81,0,0,0,9.81,9.81h91.89a9.81,9.81,0,0,0,9.81-9.81V193.18A9.81,9.81,0,0,0,285.94,183.38ZM240,258.61a19.48,19.48,0,1,1,19.48-19.48A19.48,19.48,0,0,1,240,258.61Z"/><path class="cls-2" d="M240,213.25a25.88,25.88,0,1,0,25.88,25.88A25.87,25.87,0,0,0,240,213.25Zm0,40.44a14.56,14.56,0,1,1,14.56-14.56A14.56,14.56,0,0,1,240,253.69Z"/><rect class="cls-3" x="199.09" y="200" width="15.33" height="11"/></svg>