<svg id="icons" xmlns="http://www.w3.org/2000/svg" xmlns:xlink="http://www.w3.org/1999/xlink" viewBox="0 0 132 76.67">
  <defs>
    <style>
      .cls-1, .cls-5 {
        fill: none;
      }

      .cls-2 {
        clip-path: url(#clip-path);
      }

      .cls-3 {
        fill: #fffa75;
      }

      .cls-4 {
        fill: #262626;
        stroke: #262626;
        stroke-width: 0.3;
      }

      .cls-5 {
        stroke: #fffa75;
        stroke-miterlimit: 10;
        stroke-width: 2.23px;
      }

      .cls-6 {
        fill: #262626;
      }
    </style>
    <clipPath id="clip-path">
      <rect class="cls-1" x="-603.61" y="465.77" width="197.61" height="367.56"/>
    </clipPath>
  </defs>
  <title>logo</title>
  <g>
    <g>
      <polygon class="cls-3" points="66.43 26.62 65.38 27.75 67.11 29.35 67.98 28.34 66.43 26.62"/>
      <g>
        <path class="cls-6" d="M84.11,39.29l2.4-.38c-0.29-1.85-3.16-2.19-7.37-2.13A104,104,0,0,0,65.84,38l0.24,0.38L67,39.89l0.22,0.38c10.48-1.5,16.3-1.14,17.12-.57A0.67,0.67,0,0,1,84.11,39.29Z"/>
        <path class="cls-6" d="M66.09,40.42l-0.87-1.51c-0.14-.24-0.28-0.49-0.41-0.73H64.74a107.09,107.09,0,0,0-14.13,3.1c-4,1.24-6.65,2.45-6.36,4.29l2.4-.38a0.67,0.67,0,0,1-.08.46c0.65-.85,6.76-3.22,18.54-5.08l1-.15h0Z"/>
      </g>
      <g>
        <polyline class="cls-5" points="59.9 42.83 58.04 32.2 50.98 36.31 44.05 19.22"/>
        <circle class="cls-3" cx="54.68" cy="34.28" r="1.68"/>
        <path class="cls-6" d="M29.37,22.25c0.26-.09,10.15-1.71,10.15-1.71L41.45,24Z"/>
        <polygon class="cls-3" points="61.07 45.54 59.7 45.78 60.5 50.36 61.91 50.36 61.07 45.54"/>
      </g>
      <g>
        <path class="cls-3" d="M65.62,42L67,41.82A103.08,103.08,0,0,0,54.87,24.59l-2.3,2.11A102.11,102.11,0,0,1,63.67,42.34Z"/>
        <path class="cls-3" d="M67.83,43.13l-1.77.29-1.55.24c1.59,2.76,2.92,5.46,4.46,8.77h3.44C70.84,48.93,69.47,46,67.83,43.13Z"/>
      </g>
      <rect class="cls-3" x="43.23" y="13.39" width="14.17" height="12.82"/>
      <path class="cls-3" d="M62.41,20.61c-0.19,1.24-.19,3.35-1.58,5l3.23,2.69,3.05-3.22Z"/>
      <circle class="cls-6" cx="50.32" cy="19.95" r="2.14"/>
      <path class="cls-6" d="M59.8,11l3.07-2.38L51.56,9,51,9c-6.4,0-9.71,2.91-11.06,7,0,0,0,0,0,0l-0.13.39c0,0.12-.06.24-0.09,0.36s-0.11.42-.16,0.59c-0.09.33-.16,0.52-0.16,0.52s-0.05-.19-0.11-0.53c0-.17-0.07-0.38-0.1-0.62s0-.25,0-0.38V15.88c0-.28,0-0.58,0-0.89H27.43L39.27,22.2c0.06,0.48.15,1,.25,1.45l3.79,26.7h4.2l-0.43-3a24.27,24.27,0,0,0,3.81.24h0.74a107.42,107.42,0,0,0,14.44-1.4,107.38,107.38,0,0,0,14.17-3.11,28.35,28.35,0,0,0,4-1.52c2.12,3.21,4,6.24,5.46,8.8h4.82C88.62,39.79,74.78,17.7,59.8,11Zm-9.48,4.51a4.39,4.39,0,1,1-4.39,4.39A4.39,4.39,0,0,1,50.32,15.52ZM65.59,43.1c-11.44,1.8-18,1.5-19,.93,0.08,0-2-14.31-2-14.31a20.15,20.15,0,0,0,2.5.74c6,1.33,10.52-1,13-5.62a13.11,13.11,0,0,0,1.27-7.94c5.95,3.8,12.46,10,18.55,18.33,0.91,1.24,1.79,2.49,2.64,3.72C80,40,74.39,41.72,65.59,43.1Z"/>
    </g>
    <g>
      <polygon id="a2" class="cls-4" points="9.27 67.61 9.2 67.75 10.53 67.75 12.71 63.63 14.91 67.75 16.25 67.75 12.71 61.12 9.27 67.61"/>
      <polygon id="a3" class="cls-4" points="88.48 67.61 88.41 67.75 89.74 67.75 91.92 63.63 94.12 67.75 95.45 67.75 91.92 61.12 88.48 67.61"/>
      <polygon id="a4" class="cls-4" points="119.27 61.12 115.83 67.61 115.75 67.75 117.08 67.75 119.27 63.63 121.47 67.75 122.8 67.75 119.27 61.12"/>
      <path id="u" class="cls-4" d="M29.48,64.84a1.89,1.89,0,0,1-1.69,1.84,1.89,1.89,0,0,1-1.69-1.84V61.55H24.92v3.29a3.06,3.06,0,0,0,2.87,3,3.06,3.06,0,0,0,2.87-3V61.55H29.48v3.29Z"/>
      <polygon id="t2" class="cls-4" points="40.23 62.75 42.32 62.75 42.32 67.75 43.49 67.75 43.49 62.75 45.58 62.75 45.58 61.57 40.23 61.57 40.23 62.75"/>
      <polygon id="t1" class="cls-4" points="102.9 62.75 104.99 62.75 104.99 67.75 106.17 67.75 106.17 62.75 108.26 62.75 108.26 61.57 102.9 61.57 102.9 62.75"/>
      <g id="o">
        <path class="cls-4" d="M57.89,61.51a3.17,3.17,0,1,0,3.17,3.17A3.17,3.17,0,0,0,57.89,61.51Zm2,3.17a2,2,0,1,1-2-2A2,2,0,0,1,59.88,64.68Z"/>
        <polygon class="cls-4" points="59.19 58.89 58.09 58.89 56.89 60.88 57.96 60.88 59.19 58.89"/>
      </g>
      <polygon class="cls-4" points="78.2 61.07 74.92 65.99 71.64 61.07 70.14 67.78 71.31 67.78 72.17 63.93 74.92 68.05 77.67 63.93 78.53 67.78 79.7 67.78 78.2 61.07"/>
    </g>
  </g>
</svg>
