<svg id="m_glass" xmlns="http://www.w3.org/2000/svg" viewBox="0 0 82.31 82.28">
  <defs>
    <style>
      .cls-1 {
        fill: #8c8940;
      }

      .cls-2 {
        fill: #aba74d;
      }

      .cls-3 {
        fill: #42411e;
      }

      .cls-4 {
        opacity: 0.22;
      }

      .cls-5 {
        fill: #dbd765;
      }

      .cls-6 {
        fill: #fffa75;
      }

      .cls-7, .cls-8, .cls-9 {
        fill: none;
        stroke-miterlimit: 10;
      }

      .cls-7 {
        stroke: #fffa75;
        stroke-width: 6px;
      }

      .cls-8 {
        stroke: #545327;
        stroke-width: 4px;
      }

      .cls-8, .cls-9 {
        stroke-linecap: square;
      }

      .cls-9 {
        stroke: #fffed6;
        stroke-width: 3px;
      }
    </style>
  </defs>
  <title>m_glass</title>
  <g>
    <g id="eye">
      <g>
        <path class="cls-1" d="M55.37,55.9h0L26.59,27.12h0A20.35,20.35,0,1,0,55.37,55.9Z"/>
        <path class="cls-2" d="M55.37,55.9h0L26.59,27.12h0A20.35,20.35,0,1,1,55.37,55.9Z"/>
        <ellipse class="cls-3" cx="26.87" cy="27.4" rx="2.93" ry="1.42" transform="translate(-11.51 27.03) rotate(-45)"/>
      </g>
    </g>
    <g id="body">
      <path class="cls-4" d="M55.37,55.9h0a20.33,20.33,0,0,0-17-34.56V38.89H20.82A20.33,20.33,0,0,0,55.37,55.9Z"/>
      <g id="darker">
        <path class="cls-5" d="M23.93,24.39h0A24.16,24.16,0,1,0,58.11,58.56h0Z"/>
        <path class="cls-5" d="M41.06,65.71A24.2,24.2,0,0,1,23.89,58.6L41.06,41.43,58.22,58.6h0A24.2,24.2,0,0,1,41.06,65.71Z"/>
      </g>
      <g id="lighter">
        <path class="cls-6" d="M58.07,58.6h0A24.16,24.16,0,1,0,23.89,24.42h0Z"/>
        <path class="cls-6" d="M65.26,41.51a24.2,24.2,0,0,0-7.11-17.16L41,41.51,58.15,58.68h0A24.2,24.2,0,0,0,65.26,41.51Z"/>
      </g>
    </g>
    <line id="handle" class="cls-7" x1="66.6" y1="67.13" x2="40.98" y2="41.51"/>
    <g id="x">
      <line id="line2" class="cls-8" x1="40.81" y1="41.59" x2="41.31" y2="41.59"/>
      <line id="line1" class="cls-8" x1="41.06" y1="41.45" x2="41.06" y2="41.73"/>
    </g>
    <g id="shine">
      <path class="cls-9" d="M26.64,27.17a20.19,20.19,0,0,1,8-4.94"/>
      <path class="cls-9" d="M21.1,37.51a20.07,20.07,0,0,1,1.08-3.61"/>
    </g>
  </g>
</svg>
