<svg xmlns="http://www.w3.org/2000/svg" viewBox="0 0 600 600">
  <defs>
    <style>
      .cls-1 {
        fill: #160711;
      }
    </style>
  </defs>
  <title>mask</title>
  <g id="Capa_2" data-name="Capa 2">
    <g id="mask">
      <path class="cls-1" d="M0,0V600H600V0ZM510.79,223.92c0,8.16-9.23,119.14-9.62,126-4.49,5.18-11.08-1.79-16.16,5.84,1.31,1.39-3.28.29-1.6,3.59-.86-1.35-2.28-.87-3.21-1,1.46-1.1,2.92-2.2,3-4.07-6.95-.72-14.45.37-21.36-1-4.1-1.68-5.52,6.95-6.45,6.85l.18-3.12-4.17-.43c.75,3.21,0,8.15,1.78,9.6-.11,1.86-1.43.48-2.85,1,.5-.57,1.57-3,.68-3.69-3.24-.34-1.07,2.4-4.89,3.88,0-.63,2.6-4.75-.53-7-7.72-2.67-51,.37-59.75.77-.06.12-.1.13-.14,0h.14c.5-1.07,1.63-10.87,2.09-11.59l-3.87,3.31,2.1,4c-4.56,6.42-30.46,10.66-35.41,15.78l1.39.14c-3.89,2.73-6.7,3.07-11.36,3.2l2.89-1.58c-1.1-5.13-3.46-4.74-6.27-4.42l1.74,2.06c-3.06,4.69-5.63.68-10.33,1.43l1.79,1.45c-1,1.15-2.35.38-3.74.23,2.46-2.25-1.67-3.31-2.46-5.9,1.57,5.19-3.06,4.7-4.49,5.18-.71-3.83-4.34,2.68-4.59-1.11-1.46,1.1-.22,3.75.25,3.79-3.13-2.21-5.81,3.79-11.43,4.45-9.72-1-1.26-3.32-12.23,1.18l-1.24-2.65-.72,4.32c-1.89-7.73-6.41-1.93-7.37-9.55-1.1,3-2.28-.86-4.77,2,1.11,5.13,4,2.93,5.23,6.19-9.43,2.16-51.48-2-60.24-3.53,1.42-.47,1.1-3-.21-4.4l-3.35,1.53c.4,1.3,1.32,1.39.79,2.59-1.46,1.1-3.14-2.21-3.85,2.11.15-2.49-2.17-2.73-2.14-3.36-1.64,4.23-7.65-4.55-9.51,3.4-4.74,1.39-1.11-5.13-6.23-5L198,382c-.43-.68-27.38-.44-26.59,2.15-.39-1.29-.75-3.21-2.06-4.61-4.74,1.39-9.36.91-14.57,2.25.5-.58,1-.53.57-1.83-17.27.7-33.83-2.91-50.92-5.32-3.24-.34-.64-5.09-3.42-5.38-1.78-1.44-3.81,1.49-5.27,2.59.42.68,1.35.77.81,2a6.18,6.18,0,0,0-3.13-1.63l0,0,0-.07c-2.16-.57-4.44-.89-5.76-4.29,2.33-.38,4.1,1,5.76,4.29l.08,0c1-1.76,2.93-3.41.22-4.31l3.7.38c.18-3.11-1.06.5-3.76-1l-2.25.4.18-3.11C80.14,341.68,89.1,234.31,89.1,234.31l.81-.88,5.57,8.89c8.61-4.12,18.55,1.31,25,2.6,2.82-.33,10.19,1.06,14.11-2.29l-.18,3.12c4.7-.76,11.15-5.72,14-6.68l-.07,1.25c1.89-.43,6.84-3.67,6.24-9.37,4.55,1.73,3.76,7.29,9.54,4.14l-.89-.73c6.62-1.82,38.88,2.89,44.57,1l-.53,1.2c5.31-3.21,12.07.63,17.48-4.45,10.08,2.94,53.55,6.59,64.9,3.38,9.86-1.47.77-4.25,10.52-3.86,1.39.14,2-2.31.22-3.74,3.2,1,7.43.15,10.5,3.6,19.84-4.83,59.24-4.55,78.43-6.3l-.49.56c12.6-.56,62.13-5.54,74.67-4.86l2.53-3.5c2.63,2.79,5.09.53,8.69,2.79,1.88-.43,1.11-3,.21-3.74,3.13,2.21,6.55-.57,8.29,1.5l-.53,1.2c4.91,3.65,7.76-5.47,13.14-1.77l0,.63c2.21,2.12,4.74-1.38,6.67-2.44,2.7,1.53.21,4.41,2.45,5.9,1-3.92,3.35-1.31,5.74-.89l1.78-.21a2.59,2.59,0,0,1-1.78.21c-2.65.34-5.66,1.11-5.49,4.69,3.27-.3.71,3.83,4.06,2.3l.25-4.37a3.07,3.07,0,0,1,4.56,1.74C513.57,224.21,512.19,224.07,510.79,223.92Z"/>
    </g>
  </g>
</svg>
