<svg id="Layer_1" data-name="Layer 1" xmlns="http://www.w3.org/2000/svg" xmlns:xlink="http://www.w3.org/1999/xlink" viewBox="0 0 230 230"><defs><style>.cls-1{fill:#fffa75;}.cls-2{fill:#FF6857;}</style><symbol id="arrow" data-name="arrow" viewBox="0 0 35.5 71"><polygon class="cls-1" points="35.5 71 0 35.5 35.5 0 35.5 71"/></symbol></defs><title>mouse</title><use width="35.5" height="71" transform="translate(129.39 4.8) rotate(90) scale(0.41)" xlink:href="#arrow"/><use width="35.5" height="71" transform="translate(100.61 225.2) rotate(-90) scale(0.41)" xlink:href="#arrow"/><use width="35.5" height="71" transform="translate(23.41 102.39) scale(0.41)" xlink:href="#arrow"/><use width="35.5" height="71" transform="translate(206.59 131.17) rotate(180) scale(0.41)" xlink:href="#arrow"/><path class="cls-1" d="M132.17,103.18h14a1.33,1.33,0,0,0,1.33-1.33V84.05a15.37,15.37,0,0,0-15.37-15.37h0A1.33,1.33,0,0,0,130.84,70v31.84A1.33,1.33,0,0,0,132.17,103.18Z"/><rect class="cls-2" x="106.94" y="67.81" width="16.11" height="35.37" rx="2.12" ry="2.12"/><path class="cls-1" d="M99.16,101.85V70a1.33,1.33,0,0,0-1.33-1.33h0A15.37,15.37,0,0,0,82.46,84.05v17.8a1.33,1.33,0,0,0,1.33,1.33h14A1.33,1.33,0,0,0,99.16,101.85Z"/><path class="cls-1" d="M82.46,111.87v24.56a29.33,29.33,0,0,0,29.33,29.33h6.43a29.33,29.33,0,0,0,29.33-29.33V111.87a2.52,2.52,0,0,0-2.52-2.52H85A2.52,2.52,0,0,0,82.46,111.87Z"/></svg>