<svg xmlns="http://www.w3.org/2000/svg" viewBox="0 0 480 480"><defs><style>.cls-1{isolation:isolate;}.cls-2{fill:#1a1a1a;mix-blend-mode:multiply;}.cls-3{fill:#fff;}</style></defs><title>profile</title><g class="cls-1"><g id="Layer_1" data-name="Layer 1"><path class="cls-2" d="M263.18,269.87a20.68,20.68,0,0,1-8.42-9.34c-2.23-4.93-4.93-11.49-4.93-14.3v-0.44c13.68-7.57,21.3-30,21.3-45,0-18.28-12.46-33.11-30.75-33.11s-30.75,14.82-30.75,33.11c0,15,7.62,37.42,21.3,45,0,3.23-2.77,9.78-5.08,14.68a20.66,20.66,0,0,1-8.74,9.29l-0.21.11c-33.82,18.46-37,4.13-37,38.16H300.2C300.2,274,297,288.33,263.18,269.87Zm-41.85-70.62A18.75,18.75,0,1,1,240.08,218,18.75,18.75,0,0,1,221.33,199.25Z"/><path class="cls-3" d="M262.07,207.17a27.8,27.8,0,0,0,.72-6.07,22.8,22.8,0,0,0-45.59,0,27.81,27.81,0,0,0,.72,6.07H206.28v4h12.79a33.91,33.91,0,0,0,9.43,14.17v8A18.07,18.07,0,0,0,240,238a16.58,16.58,0,0,0,11.5-4.67v-8a33.91,33.91,0,0,0,9.43-14.17h14v-4H262.07ZM240,211a10.47,10.47,0,1,1,10.47-10.47A10.47,10.47,0,0,1,240,211Z"/></g></g></svg>