<svg xmlns="http://www.w3.org/2000/svg" viewBox="0 0 480 480"><defs><style>.cls-1{isolation:isolate;}.cls-2{fill:#2b2b29;mix-blend-mode:multiply;}.cls-3{fill:#CBCBC4;}</style></defs><title>profile</title><g class="cls-1"><g id="Layer_1" data-name="Layer 1"><path class="cls-2" d="M263.1,262.87l-5.55-3.22a15.52,15.52,0,0,1-7.73-13.42v-0.44c13.68-7.57,21.3-30,21.3-45,0-18.28-12.46-33.11-30.75-33.11s-30.75,14.82-30.75,33.11c0,15,7.62,37.42,21.3,45a15.52,15.52,0,0,1-7.73,13.42l-6.3,3.65c-33.82,18.46-44.65,8.6-37,45.16H234L238,279.5h4L245.85,308h54.27C307.75,271.47,303.62,282.5,263.1,262.87ZM241.7,276.19H238.3l-3.57-6.63h10.54ZM240,221.47A10.47,10.47,0,1,1,250.47,211,10.47,10.47,0,0,1,240,221.47Z"/><path class="cls-3" d="M262.07,207.17a27.8,27.8,0,0,0,.72-6.07,22.8,22.8,0,0,0-45.59,0,27.81,27.81,0,0,0,.72,6.07H206.28v4h12.79a33.91,33.91,0,0,0,9.43,14.17v8A18.07,18.07,0,0,0,240,238a16.58,16.58,0,0,0,11.5-4.67v-8a33.91,33.91,0,0,0,9.43-14.17h14v-4H262.07ZM240,216.75a5.75,5.75,0,1,1,5.75-5.75A5.75,5.75,0,0,1,240,216.75Z"/></g></g></svg>