<svg xmlns="http://www.w3.org/2000/svg" viewBox="0 0 120.41 147.07"><defs><style>.cls-1{isolation:isolate;}.cls-2{fill:#1f1f1f;mix-blend-mode:multiply;}.cls-3{fill:#ff2b4a;}.cls-4{fill:#fff;}</style></defs><title>profile</title><g class="cls-1"><g id="Capa_2" data-name="Capa 2"><g id="Capa_1-2" data-name="Capa 1"><path class="cls-2" d="M83.3,108.9a20.86,20.86,0,0,1-8.42-9.34l-.65-1.45L60.12,91.05l11.29,1.25L60.16,85.62A24.67,24.67,0,0,0,70,84.77c13.62-7.62,21.21-30,21.21-44.93,0-18.28-12.46-33.11-30.75-33.11S29.75,21.55,29.75,39.84c0,15,7.62,37.42,21.3,45C51,88.05,48.28,94.6,46,99.5a20.66,20.66,0,0,1-8.74,9.29l-.21.11C.12,129.05.12,110.05,0,147.07H120.31C120.31,113,124.12,133.05,83.3,108.9ZM41.45,41.29c0-12,8.39-21.76,18.75-21.76s18.75,9.74,18.75,21.76S70.55,63.05,60.2,63.05,41.45,53.31,41.45,41.29Z"/><path class="cls-3" d="M60.12,15a22.8,22.8,0,0,0-22.8,22.8c0,14.6,7.13,20.64,11.3,24.2V69.7a21.77,21.77,0,0,0,11.5,3.35,19.84,19.84,0,0,0,11.5-3.35V62c4.17-3.56,11.3-8.77,11.3-24.2A22.8,22.8,0,0,0,60.12,15Zm13,23.08a13,13,0,1,1-13-13A13,13,0,0,1,73.12,38.05Z"/><polygon class="cls-3" points="75.63 31.99 107.62 0 107.62 15.65 81.42 41.85 75.63 31.99"/><polygon class="cls-3" points="28.95 16.33 28.95 31.99 38.82 41.85 44.61 31.99 28.95 16.33"/><polygon class="cls-3" points="16.7 4.08 12.62 0 12.62 15.65 16.7 19.74 16.7 4.08"/><polygon class="cls-3" points="20.79 8.17 20.79 23.82 26.23 29.26 26.23 13.61 20.79 8.17"/><path class="cls-4" d="M41.12,115.82a32.12,32.12,0,0,1,4.53-.64c1.51-.12,3-.18,4.53-.18s3,.06,4.53.18a31.76,31.76,0,0,1,4.53.64,31.76,31.76,0,0,1-4.53.64c-1.51.12-3,.19-4.53.18s-3-.06-4.53-.18A32.12,32.12,0,0,1,41.12,115.82Z"/><path class="cls-4" d="M66.05,115.82a8.78,8.78,0,0,1,2.27-.64,14.2,14.2,0,0,1,2.27-.18,14,14,0,0,1,2.27.18,8.68,8.68,0,0,1,2.27.64,8.68,8.68,0,0,1-2.27.64,14,14,0,0,1-2.27.18,14.2,14.2,0,0,1-2.27-.18A8.78,8.78,0,0,1,66.05,115.82Z"/></g></g></g></svg>