<svg id="skillIcon" xmlns="http://www.w3.org/2000/svg" viewBox="0 0 18 18">
  <defs>
    <style>
      .cls-1, .cls-10, .cls-5 {
        fill: #1a1a1a;
      }

      .cls-1 {
        opacity: 0.3;
      }

      .cls-2 {
        fill: #7d7d7d;
      }

      .cls-3, .cls-4 {
        fill: none;
        stroke-miterlimit: 10;
      }

      .cls-3 {
        stroke: #ccc;
        stroke-width: 0.3px;
      }

      .cls-4 {
        stroke: #1a1a1a;
        stroke-width: 0.49px;
      }

      .cls-6 {
        fill: #eb3f67;
      }

      .cls-10, .cls-6 {
        opacity: 0.15;
      }

      .cls-7 {
        fill: #ff4170;
      }

      .cls-8 {
        opacity: 0.7;
      }

      .cls-9 {
        fill: #fff;
      }
    </style>
  </defs>
  <title>skill-box</title>
  <polygon class="cls-1" points="2 16.5 2 14.27 2.8 14.27 2.8 11.31 1.73 11.31 1.73 10.19 0.76 10.19 0.76 8.6 1.73 8.6 1.73 7.48 2.8 7.48 2.8 4.99 2 4.99 2 2.75 16.05 2.75 16.05 4.96 15.52 4.99 15.25 4.99 15.25 7.48 16.26 7.48 16.26 8.6 17.32 8.6 17.32 10.19 16.26 10.19 16.26 11.31 15.25 11.31 15.25 14.27 16.05 14.27 16.05 16.48 15.52 16.5 2 16.5"/>
  <g id="body">
    <g>
      <g>
        <rect class="cls-2" x="2.93" y="14.51" width="12.2" height="1.08"/>
        <line class="cls-3" x1="15.13" y1="15.45" x2="2.93" y2="15.45"/>
      </g>
      <g>
        <rect class="cls-2" x="2.93" y="3.69" width="12.2" height="1.08"/>
        <line class="cls-3" x1="15.13" y1="3.59" x2="2.93" y2="3.59"/>
      </g>
    </g>
    <g>
      <line class="cls-4" x1="1.77" y1="9.52" x2="16.32" y2="9.52"/>
      <rect class="cls-5" x="2.68" y="8.23" width="1.22" height="2.59"/>
      <rect class="cls-5" x="14.11" y="8.23" width="1.22" height="2.59"/>
      <rect class="cls-2" x="2.68" y="8.23" width="1.22" height="1.29"/>
      <rect class="cls-2" x="14.11" y="8.23" width="1.22" height="1.29"/>
    </g>
    <path class="cls-5" d="M14.15,14.85H3.91a0.23,0.23,0,0,1-.23-0.23V4.43A0.23,0.23,0,0,1,3.91,4.2H14.14a0.24,0.24,0,0,1,.24.24V14.62A0.23,0.23,0,0,1,14.15,14.85Z"/>
  </g>
  <g>
    <rect id="skill-sheen" class="cls-6" x="5.26" y="5.67" width="7.54" height="7.54" rx="3.77" ry="3.77"/>
    <rect id="skill-sheen-2" data-name="skill-sheen" class="cls-7" x="7.52" y="7.93" width="3.02" height="3.02" rx="1.51" ry="1.51"/>
    <rect id="skill-sheen-3" data-name="skill-sheen" class="cls-6" x="6.28" y="6.69" width="5.49" height="5.49" rx="2.74" ry="2.74"/>
  </g>
  <g id="light">
    <g id="reflects-light">
      <g class="cls-8">
        <path class="cls-9" d="M10,10a0.87,0.87,0,0,1-.21.31,1.2,1.2,0,0,1-.78.31,1.2,1.2,0,0,1-.77-0.34A0.87,0.87,0,0,1,8,10a1.33,1.33,0,0,0,.26.26A1.08,1.08,0,0,0,9,10.5a1.08,1.08,0,0,0,.73-0.22A1.29,1.29,0,0,0,10,10Z"/>
      </g>
      <path class="cls-10" d="M9,8.28A1.5,1.5,0,0,1,10.52,9.6a1.49,1.49,0,0,0,0-.19,1.51,1.51,0,1,0-3,0,1.49,1.49,0,0,0,0,.19A1.5,1.5,0,0,1,9,8.28Z"/>
      <rect class="cls-9" x="8.26" y="8.73" width="0.31" height="0.31"/>
      <rect class="cls-9" x="8.82" y="8.73" width="0.31" height="0.31"/>
      <circle class="cls-5" cx="9.03" cy="9.44" r="0.3"/>
    </g>
  </g>
</svg>
