<svg id="Login" xmlns="http://www.w3.org/2000/svg" viewBox="0 0 76.75 77.75"><defs><style>.cls-2{fill:#FFFA75;}</style></defs><title>sun</title><circle class="cls-2" cx="38.38" cy="38.87" r="12.46"/><path class="cls-2" d="M38.38,20.13a1.8,1.8,0,0,1-1.8-1.8V10.68a1.8,1.8,0,0,1,3.61,0v7.65A1.8,1.8,0,0,1,38.38,20.13Z"/><path class="cls-2" d="M52.91,26.15a1.8,1.8,0,0,1-1.28-3.08L57,17.66a1.8,1.8,0,0,1,2.55,2.55l-5.41,5.41A1.8,1.8,0,0,1,52.91,26.15Z"/><path class="cls-2" d="M66.57,40.68H58.92a1.8,1.8,0,1,1,0-3.61h7.65A1.8,1.8,0,0,1,66.57,40.68Z"/><path class="cls-2" d="M58.31,60.62A1.8,1.8,0,0,1,57,60.09l-5.41-5.41a1.8,1.8,0,0,1,2.55-2.55l5.41,5.41A1.8,1.8,0,0,1,58.31,60.62Z"/><path class="cls-2" d="M38.38,68.88a1.8,1.8,0,0,1-1.8-1.8V59.42a1.8,1.8,0,1,1,3.61,0v7.65A1.8,1.8,0,0,1,38.38,68.88Z"/><path class="cls-2" d="M18.44,60.62a1.8,1.8,0,0,1-1.28-3.08l5.41-5.41a1.8,1.8,0,1,1,2.55,2.55l-5.41,5.41A1.8,1.8,0,0,1,18.44,60.62Z"/><path class="cls-2" d="M17.83,40.68H10.18a1.8,1.8,0,1,1,0-3.61h7.65A1.8,1.8,0,0,1,17.83,40.68Z"/><path class="cls-2" d="M23.84,26.15a1.8,1.8,0,0,1-1.28-.53l-5.41-5.41a1.8,1.8,0,0,1,2.55-2.55l5.41,5.41A1.8,1.8,0,0,1,23.84,26.15Z"/></svg>