<svg id="icons" xmlns="http://www.w3.org/2000/svg" xmlns:xlink="http://www.w3.org/1999/xlink" viewBox="0 0 27.8 27.8">
  <defs>
    <style>
      .cls-1 {
        fill: none;
      }

      .cls-2 {
        clip-path: url(#clip-path);
      }

      .cls-3 {
        fill: #fffa75;
      }
    </style>
    <clipPath id="clip-path">
      <rect class="cls-1" x="-422.9" y="346.98" width="197.61" height="336.55"/>
    </clipPath>
  </defs>
  <title>icons</title>
  <g>
    <path class="cls-3" d="M3.73,24.08H24.07V3.72H3.73V24.08ZM6.27,6.27H21.53V21.53H6.27V6.27Z"/>
    <rect class="cls-3" y="3.76" width="1.27" height="1.27"/>
    <rect class="cls-3" x="2.54" y="3.76" width="1.27" height="1.27"/>
    <rect class="cls-3" y="22.77" width="1.27" height="1.27"/>
    <rect class="cls-3" x="2.54" y="22.77" width="1.27" height="1.27"/>
    <rect class="cls-3" x="23.98" y="22.77" width="1.27" height="1.27"/>
    <rect class="cls-3" x="26.53" y="22.77" width="1.27" height="1.27"/>
    <rect class="cls-3" x="23.98" y="3.76" width="1.27" height="1.27"/>
    <rect class="cls-3" x="26.53" y="3.76" width="1.27" height="1.27"/>
    <rect class="cls-3" x="3.76" y="23.98" width="1.27" height="1.27"/>
    <rect class="cls-3" x="3.76" y="26.53" width="1.27" height="1.27"/>
    <rect class="cls-3" x="22.77" y="23.98" width="1.27" height="1.27"/>
    <rect class="cls-3" x="22.77" y="26.53" width="1.27" height="1.27"/>
    <rect class="cls-3" x="22.77" y="2.54" width="1.27" height="1.27"/>
    <rect class="cls-3" x="22.77" width="1.27" height="1.27"/>
    <rect class="cls-3" x="3.76" width="1.27" height="1.27"/>
    <rect class="cls-3" x="3.76" y="2.54" width="1.27" height="1.27"/>
    <polygon class="cls-3" points="15.6 9.97 12.2 9.97 12.2 12.89 8.93 12.89 13.95 17.83 18.87 12.89 15.6 12.89 15.6 9.97"/>
  </g>
</svg>
