<svg id="Layer_5" data-name="Layer 5" xmlns="http://www.w3.org/2000/svg" xmlns:xlink="http://www.w3.org/1999/xlink" viewBox="0 0 100 100"><defs><style>.cls-1,.cls-16,.cls-17,.cls-18,.cls-19,.cls-20,.cls-24,.cls-6,.cls-7{fill:none;}.cls-2{clip-path:url(#clip-path);}.cls-3{fill:#26242e;opacity:0.2;}.cls-4,.cls-5,.cls-9{fill:#ffcb00;}.cls-12,.cls-4,.cls-5,.cls-6,.cls-9{stroke:#fff166;}.cls-12,.cls-16,.cls-17,.cls-18,.cls-19,.cls-20,.cls-24,.cls-4,.cls-5,.cls-6,.cls-7,.cls-9{stroke-miterlimit:10;}.cls-4{stroke-width:1.22px;}.cls-5{stroke-width:1.09px;}.cls-6{stroke-width:0.82px;}.cls-7{stroke:#99823e;stroke-width:0.83px;}.cls-8{fill:#996b00;opacity:0.25;}.cls-12,.cls-24,.cls-9{stroke-width:0.49px;}.cls-10{fill:#ffcb51;}.cls-11{fill:#f0a800;}.cls-12{fill:#fc0;}.cls-13{fill:#fff;}.cls-14{fill:#fff166;}.cls-15{fill:#494559;}.cls-16{stroke:#494559;}.cls-16,.cls-18,.cls-19,.cls-20{stroke-width:0.63px;}.cls-17,.cls-18{stroke:#fffaca;}.cls-17{stroke-width:1.27px;}.cls-19{stroke:#fc0;}.cls-20{stroke:#78ffb4;}.cls-21{opacity:0.3;}.cls-22{clip-path:url(#clip-path-2);}.cls-23{fill:#fff0b3;}.cls-24{stroke:#26242e;opacity:0.7;}</style><clipPath id="clip-path"><rect class="cls-1" width="100" height="100"/></clipPath><clipPath id="clip-path-2"><rect class="cls-1" x="34.28" y="32.2" width="29.99" height="35.46" rx="1.07" ry="1.07"/></clipPath></defs><title>watch</title><g class="cls-2"><path class="cls-3" d="M66.72,36.92V33.76a1.07,1.07,0,0,0-1.07-1.07H64.82l-1.9-5.91H62v-35H41.62v35H40.53l-1.9,5.91H37.8a1.07,1.07,0,0,0-1.07,1.07v3.17H35.2v4.46h1.53v5.84H35.2V51.6h1.53V67.08a1.07,1.07,0,0,0,1.07,1.07h1l1.73,5.38h1.09v35.56H62V73.52h1l1.73-5.38h1a1.07,1.07,0,0,0,1.07-1.07V51.6h1.53V47.22H66.72V41.38h1.53V36.92H66.72Z"/><rect class="cls-4" x="39.16" y="70.79" width="20.35" height="45.17"/><rect class="cls-5" x="39.16" y="-8.24" width="20.35" height="36.36"/><line class="cls-6" x1="39.16" y1="76.92" x2="59.52" y2="76.92"/><line class="cls-7" x1="38.77" y1="77.65" x2="59.91" y2="77.65"/><line class="cls-6" x1="39.31" y1="84.74" x2="59.66" y2="84.74"/><line class="cls-7" x1="38.91" y1="85.48" x2="60.06" y2="85.48"/><line class="cls-6" x1="39.31" y1="92.57" x2="59.66" y2="92.57"/><line class="cls-7" x1="38.91" y1="93.31" x2="60.06" y2="93.31"/><line class="cls-6" x1="39.31" y1="100.4" x2="59.66" y2="100.4"/><line class="cls-6" x1="39.31" y1="5.5" x2="59.66" y2="5.5"/><line class="cls-7" x1="38.91" y1="6.24" x2="60.06" y2="6.24"/><line class="cls-6" x1="39.38" y1="13.06" x2="59.73" y2="13.06"/><line class="cls-7" x1="38.98" y1="13.8" x2="60.13" y2="13.8"/><line class="cls-6" x1="39.38" y1="20.62" x2="59.73" y2="20.62"/><line class="cls-7" x1="38.98" y1="21.35" x2="60.13" y2="21.35"/><rect class="cls-8" x="38.91" y="70.81" width="21" height="4.45"/><rect class="cls-8" x="38.91" y="24.07" width="21" height="4.45"/><polygon class="cls-9" points="60.47 26.3 38.08 26.3 35.87 33.17 62.68 33.17 60.47 26.3"/><polygon class="cls-9" points="38.08 73.04 60.47 73.04 62.68 66.17 35.87 66.17 38.08 73.04"/><rect class="cls-10" x="32.75" y="46.73" width="33.04" height="4.36"/><rect class="cls-10" x="32.75" y="36.44" width="33.04" height="4.36"/><rect class="cls-11" x="32.75" y="38.72" width="33.04" height="2.18"/><rect class="cls-11" x="32.75" y="48.94" width="33.04" height="2.18"/><rect class="cls-12" x="34.28" y="32.2" width="29.99" height="35.46" rx="1.07" ry="1.07"/><rect class="cls-13" x="38.91" y="37.17" width="20.61" height="12.86"/><rect class="cls-14" x="39.72" y="37.31" width="19.08" height="11.76"/><rect class="cls-15" x="36.73" y="54.14" width="25.08" height="10.71" rx="0.95" ry="0.95"/><path class="cls-15" d="M61.43,34.72H37.12A1.25,1.25,0,0,0,35.87,36V50.82a1.25,1.25,0,0,0,1.25,1.25H61.43a1.25,1.25,0,0,0,1.25-1.25V36A1.25,1.25,0,0,0,61.43,34.72ZM59,49.17a0.15,0.15,0,0,1-.15.15H39.66a0.15,0.15,0,0,1-.15-0.15V38.33a0.15,0.15,0,0,1,.15-0.15H58.89a0.15,0.15,0,0,1,.15.15V49.17Z"/><line class="cls-16" x1="37.95" y1="41.74" x2="59.04" y2="41.74"/><line class="cls-17" x1="39.51" y1="36.44" x2="45.6" y2="36.44"/><line class="cls-18" x1="47.49" y1="36.76" x2="59.04" y2="36.76"/><line class="cls-19" x1="35.87" y1="57.65" x2="62.68" y2="57.65"/><line class="cls-19" x1="35.87" y1="61.34" x2="62.68" y2="61.34"/><line class="cls-19" x1="42.99" y1="53.09" x2="42.99" y2="65.66"/><line class="cls-19" x1="49.27" y1="53.09" x2="49.27" y2="65.66"/><line class="cls-19" x1="55.55" y1="53.09" x2="55.55" y2="65.66"/><line class="cls-16" x1="51.97" y1="37.53" x2="51.97" y2="41.74"/><line class="cls-16" x1="53.27" y1="40.36" x2="58.04" y2="40.36"/><line class="cls-20" x1="43.92" y1="50.72" x2="54.63" y2="50.72"/><g class="cls-21"><g class="cls-22"><polygon class="cls-23" points="39.19 78.03 30.11 78.03 43.88 20.61 52.95 20.61 39.19 78.03"/><polygon class="cls-23" points="56.27 78.03 47.19 78.03 60.95 20.61 70.03 20.61 56.27 78.03"/></g></g><rect class="cls-24" x="35.87" y="34.72" width="26.81" height="17.35" rx="1.25" ry="1.25"/></g></svg>